<?xml version='1.0' encoding='utf-8'?>
<mlt title="Anonymous Submission" LC_NUMERIC="en_US.UTF-8" producer="main bin" version="6.10.0" root="/home/bob/projects/stuff/demo/2018">
 <profile frame_rate_num="25" sample_aspect_num="1" display_aspect_den="16" colorspace="0" progressive="0" description="Android 1080x1920i 25 fps" display_aspect_num="9" frame_rate_den="1" width="1080" height="1920" sample_aspect_den="1"/>
 <producer id="16" in="0" out="5185">
  <property name="length">00:03:27:11</property>
  <property name="eof">pause</property>
  <property name="resource">/home/bob/projects/stuff/demo/12_ppk_voskreshenie_myzuka.ru.mp3</property>
  <property name="meta.media.nb_streams">1</property>
  <property name="meta.media.0.stream.type">audio</property>
  <property name="meta.media.0.codec.sample_fmt">fltp</property>
  <property name="meta.media.0.codec.sample_rate">44100</property>
  <property name="meta.media.0.codec.channels">2</property>
  <property name="meta.media.0.codec.name">mp3float</property>
  <property name="meta.media.0.codec.long_name">MP3 (MPEG audio layer 3)</property>
  <property name="meta.media.0.codec.bit_rate">256000</property>
  <property name="meta.attr.0.stream.encoder.markup">LAME3.92 </property>
  <property name="meta.attr.title.markup">Âîñêðåøåíèå</property>
  <property name="meta.attr.album.markup">Ðóññêèé Òðàíñ : Ôîðìèðîâàíèå</property>
  <property name="meta.attr.artist.markup">ÏÏÊ</property>
  <property name="meta.attr.track.markup">12</property>
  <property name="meta.attr.comment.markup">Exact Audio Copy</property>
  <property name="meta.attr.genre.markup">Trance</property>
  <property name="meta.attr.date.markup">2002</property>
  <property name="seekable">1</property>
  <property name="audio_index">0</property>
  <property name="video_index">-1</property>
  <property name="mute_on_pause">1</property>
  <property name="mlt_service">avformat</property>
  <property name="kdenlive:file_hash">fc5a52e79aaff7b99f21490cff53de86</property>
  <property name="kdenlive:file_size">6644161</property>
  <property name="kdenlive:clipname">12_ppk_voskreshenie_myzuka.ru.mp3</property>
 </producer>
 <producer title="Anonymous Submission" id="27" in="0" out="1211">
  <property name="length">1212</property>
  <property name="eof">pause</property>
  <property name="resource">/home/bob/projects/stuff/demo/logo/.all.png</property>
  <property name="ttl">250</property>
  <property name="aspect_ratio">1</property>
  <property name="progressive">1</property>
  <property name="seekable">1</property>
  <property name="loop">1</property>
  <property name="meta.media.width">1080</property>
  <property name="meta.media.height">1920</property>
  <property name="mlt_service">pixbuf</property>
  <property name="kdenlive:clipname">Slideshow Clip</property>
  <property name="kdenlive:duration">250</property>
  <property name="kdenlive:file_hash">217dc4c64c54c1f73e67ceff52963aef</property>
  <property name="global_feed">1</property>
 </producer>
 <producer title="Anonymous Submission" id="30" in="0" out="751">
  <property name="length">00:00:30:02</property>
  <property name="eof">pause</property>
  <property name="resource">/home/bob/projects/stuff/demo/device-4.mp4</property>
  <property name="meta.media.nb_streams">1</property>
  <property name="meta.media.0.stream.type">video</property>
  <property name="meta.media.0.stream.frame_rate">17.3594</property>
  <property name="meta.media.0.stream.sample_aspect_ratio">1</property>
  <property name="meta.media.0.codec.width">1080</property>
  <property name="meta.media.0.codec.height">1920</property>
  <property name="meta.media.0.codec.rotate">0</property>
  <property name="meta.media.0.codec.frame_rate">90000</property>
  <property name="meta.media.0.codec.pix_fmt">yuv420p</property>
  <property name="meta.media.0.codec.sample_aspect_ratio">0</property>
  <property name="meta.media.0.codec.colorspace">709</property>
  <property name="meta.media.0.codec.name">h264</property>
  <property name="meta.media.0.codec.long_name">H.264 / AVC / MPEG-4 AVC / MPEG-4 part 10</property>
  <property name="meta.media.0.codec.bit_rate">956339</property>
  <property name="meta.attr.0.stream.creation_time.markup">2015-09-27T22:10:36.000000Z</property>
  <property name="meta.attr.0.stream.language.markup">eng</property>
  <property name="meta.attr.0.stream.handler_name.markup">VideoHandle</property>
  <property name="meta.attr.major_brand.markup">mp42</property>
  <property name="meta.attr.minor_version.markup">0</property>
  <property name="meta.attr.compatible_brands.markup">isommp42</property>
  <property name="meta.attr.creation_time.markup">2015-09-27T22:10:36.000000Z</property>
  <property name="seekable">1</property>
  <property name="meta.media.sample_aspect_num">1</property>
  <property name="meta.media.sample_aspect_den">1</property>
  <property name="aspect_ratio">1</property>
  <property name="audio_index">-1</property>
  <property name="video_index">0</property>
  <property name="mute_on_pause">1</property>
  <property name="mlt_service">avformat</property>
  <property name="meta.media.frame_rate_num">677</property>
  <property name="meta.media.frame_rate_den">39</property>
  <property name="meta.media.colorspace">709</property>
  <property name="meta.media.color_trc">2</property>
  <property name="meta.media.width">1080</property>
  <property name="meta.media.height">1920</property>
  <property name="meta.media.top_field_first">0</property>
  <property name="meta.media.progressive">1</property>
  <property name="kdenlive:file_hash">1058bc0003835cb45afc3d07a987874d</property>
  <property name="kdenlive:file_size">3604532</property>
  <property name="kdenlive:clipname">device-4.mp4</property>
  <property name="global_feed">1</property>
  <property name="meta.media.variable_frame_rate">1</property>
 </producer>
 <producer id="3" in="0" out="10568">
  <property name="length">00:07:02:19</property>
  <property name="eof">pause</property>
  <property name="resource">/home/bob/projects/stuff/demo/radiotrance.mp3</property>
  <property name="meta.media.nb_streams">1</property>
  <property name="meta.media.0.stream.type">audio</property>
  <property name="meta.media.0.codec.sample_fmt">fltp</property>
  <property name="meta.media.0.codec.sample_rate">44100</property>
  <property name="meta.media.0.codec.channels">2</property>
  <property name="meta.media.0.codec.name">mp3float</property>
  <property name="meta.media.0.codec.long_name">MP3 (MPEG audio layer 3)</property>
  <property name="meta.media.0.codec.bit_rate">128000</property>
  <property name="meta.attr.title.markup">Ãîðÿ÷èé Êàê Ñîëíöå ...</property>
  <property name="meta.attr.genre.markup">Trance</property>
  <property name="meta.attr.artist.markup">Radio Trance</property>
  <property name="meta.attr.id3v2_priv.AverageLevel.markup">\xd7\x0c\x00\x00</property>
  <property name="meta.attr.id3v2_priv.PeakValue.markup">%e\x00\x00</property>
  <property name="seekable">1</property>
  <property name="audio_index">0</property>
  <property name="video_index">-1</property>
  <property name="mute_on_pause">1</property>
  <property name="mlt_service">avformat</property>
  <property name="audiocodec">MP3 (MPEG audio layer 3)</property>
  <property name="analysisdata"/>
  <property name="audio_max">52</property>
  <property name="channels">2</property>
  <property name="frequency">44100</property>
  <property name="aspect_ratio">0</property>
  <property name="kdenlive:file_hash">18fe51401c353ca392ed79c2da6c78c8</property>
  <property name="kdenlive:file_size">6764108</property>
  <property name="kdenlive:clipname">radiotrance.mp3</property>
 </producer>
 <producer title="Anonymous Submission" id="31" in="0" out="445">
  <property name="length">00:00:17:21</property>
  <property name="eof">pause</property>
  <property name="resource">install-android-app.mp4</property>
  <property name="audio_index">-1</property>
  <property name="video_index">0</property>
  <property name="mute_on_pause">1</property>
  <property name="mlt_service">avformat-novalidate</property>
  <property name="meta.media.nb_streams">1</property>
  <property name="meta.media.0.stream.type">video</property>
  <property name="meta.media.0.stream.frame_rate">17.8166</property>
  <property name="meta.media.0.stream.sample_aspect_ratio">1</property>
  <property name="meta.media.0.codec.width">720</property>
  <property name="meta.media.0.codec.height">1280</property>
  <property name="meta.media.0.codec.rotate">0</property>
  <property name="meta.media.0.codec.frame_rate">90000</property>
  <property name="meta.media.0.codec.pix_fmt">yuv420p</property>
  <property name="meta.media.0.codec.sample_aspect_ratio">0</property>
  <property name="meta.media.0.codec.colorspace">601</property>
  <property name="meta.media.0.codec.color_trc">6</property>
  <property name="meta.media.0.codec.name">h264</property>
  <property name="meta.media.0.codec.long_name">H.264 / AVC / MPEG-4 AVC / MPEG-4 part 10</property>
  <property name="meta.media.0.codec.bit_rate">2960153</property>
  <property name="meta.attr.0.stream.creation_time.markup">2018-12-03T00:08:29.000000Z</property>
  <property name="meta.attr.0.stream.language.markup">eng</property>
  <property name="meta.attr.0.stream.handler_name.markup">VideoHandle</property>
  <property name="meta.attr.major_brand.markup">mp42</property>
  <property name="meta.attr.minor_version.markup">0</property>
  <property name="meta.attr.compatible_brands.markup">isommp42</property>
  <property name="meta.attr.creation_time.markup">2018-12-03T00:08:29.000000Z</property>
  <property name="meta.attr.com.android.version.markup">7.0</property>
  <property name="seekable">1</property>
  <property name="meta.media.sample_aspect_num">1</property>
  <property name="meta.media.sample_aspect_den">1</property>
  <property name="aspect_ratio">1</property>
  <property name="kdenlive:folderid">-1</property>
  <property name="meta.media.frame_rate_num">873</property>
  <property name="meta.media.frame_rate_den">49</property>
  <property name="meta.media.colorspace">601</property>
  <property name="meta.media.color_trc">6</property>
  <property name="meta.media.width">720</property>
  <property name="meta.media.height">1280</property>
  <property name="meta.media.variable_frame_rate">1</property>
  <property name="meta.media.top_field_first">0</property>
  <property name="meta.media.progressive">1</property>
  <property name="kdenlive:file_size">6612334</property>
  <property name="kdenlive:file_hash">f346ef5b29fb9100c72b10b2d9f0ea36</property>
  <property name="global_feed">1</property>
 </producer>
 <producer title="Anonymous Submission" id="32" in="0" out="124">
  <property name="length">125</property>
  <property name="eof">pause</property>
  <property name="resource"/>
  <property name="progressive">1</property>
  <property name="aspect_ratio">1</property>
  <property name="seekable">1</property>
  <property name="mlt_service">kdenlivetitle</property>
  <property name="kdenlive:clipname">app installl</property>
  <property name="kdenlive:folderid">-1</property>
  <property name="xmldata">&lt;kdenlivetitle duration="125" LC_NUMERIC="en_US.UTF-8" width="1080" height="1920" out="125">
 &lt;item type="QGraphicsTextItem" z-index="0">
  &lt;position x="234" y="916">
   &lt;transform>1,0,0,0,1,0,0,0,1&lt;/transform>
  &lt;/position>
  &lt;content line-spacing="0" shadow="0;#64000000;3;3;3" font-underline="0" box-height="87" font="Ubuntu" letter-spacing="0" font-pixel-size="76" font-italic="0" alignment="4" font-weight="50" box-width="611.313" font-color="32,74,135,255">Install mobile app&lt;/content>
 &lt;/item>
 &lt;startviewport rect="0,0,1080,1920"/>
 &lt;endviewport rect="0,0,1080,1920"/>
 &lt;background color="255,255,255,255"/>
&lt;/kdenlivetitle>
</property>
  <property name="kdenlive:duration">125</property>
  <property name="force_reload">0</property>
  <property name="meta.media.width">1080</property>
  <property name="meta.media.height">1920</property>
  <property name="kdenlive:file_hash">d9ab8f60a6c271442863d72b5e818eea</property>
  <property name="global_feed">1</property>
 </producer>
 <producer title="Anonymous Submission" id="33" in="0" out="642">
  <property name="length">00:00:25:18</property>
  <property name="eof">pause</property>
  <property name="resource">discovery.mp4</property>
  <property name="audio_index">-1</property>
  <property name="video_index">0</property>
  <property name="mute_on_pause">1</property>
  <property name="mlt_service">avformat-novalidate</property>
  <property name="meta.media.nb_streams">1</property>
  <property name="meta.media.0.stream.type">video</property>
  <property name="meta.media.0.stream.frame_rate">34.0528</property>
  <property name="meta.media.0.stream.sample_aspect_ratio">1</property>
  <property name="meta.media.0.codec.width">720</property>
  <property name="meta.media.0.codec.height">1280</property>
  <property name="meta.media.0.codec.rotate">0</property>
  <property name="meta.media.0.codec.frame_rate">90000</property>
  <property name="meta.media.0.codec.pix_fmt">yuv420p</property>
  <property name="meta.media.0.codec.sample_aspect_ratio">0</property>
  <property name="meta.media.0.codec.colorspace">601</property>
  <property name="meta.media.0.codec.color_trc">6</property>
  <property name="meta.media.0.codec.name">h264</property>
  <property name="meta.media.0.codec.long_name">H.264 / AVC / MPEG-4 AVC / MPEG-4 part 10</property>
  <property name="meta.media.0.codec.bit_rate">1156805</property>
  <property name="meta.attr.0.stream.creation_time.markup">2018-12-03T00:19:07.000000Z</property>
  <property name="meta.attr.0.stream.language.markup">eng</property>
  <property name="meta.attr.0.stream.handler_name.markup">VideoHandle</property>
  <property name="meta.attr.major_brand.markup">mp42</property>
  <property name="meta.attr.minor_version.markup">0</property>
  <property name="meta.attr.compatible_brands.markup">isommp42</property>
  <property name="meta.attr.creation_time.markup">2018-12-03T00:19:07.000000Z</property>
  <property name="meta.attr.com.android.version.markup">7.0</property>
  <property name="seekable">1</property>
  <property name="meta.media.sample_aspect_num">1</property>
  <property name="meta.media.sample_aspect_den">1</property>
  <property name="aspect_ratio">1</property>
  <property name="kdenlive:folderid">-1</property>
  <property name="meta.media.frame_rate_num">647</property>
  <property name="meta.media.frame_rate_den">19</property>
  <property name="meta.media.colorspace">601</property>
  <property name="meta.media.color_trc">6</property>
  <property name="meta.media.width">720</property>
  <property name="meta.media.height">1280</property>
  <property name="meta.media.variable_frame_rate">1</property>
  <property name="meta.media.top_field_first">0</property>
  <property name="meta.media.progressive">1</property>
  <property name="kdenlive:file_size">3734527</property>
  <property name="kdenlive:file_hash">c0b5178e4550957ed2e2d0b467279149</property>
  <property name="global_feed">1</property>
 </producer>
 <producer title="Anonymous Submission" id="34" in="0" out="124">
  <property name="length">125</property>
  <property name="eof">pause</property>
  <property name="resource"/>
  <property name="progressive">1</property>
  <property name="aspect_ratio">1</property>
  <property name="seekable">1</property>
  <property name="mlt_service">kdenlivetitle</property>
  <property name="kdenlive:clipname">sign in</property>
  <property name="kdenlive:folderid">-1</property>
  <property name="xmldata">&lt;kdenlivetitle duration="125" LC_NUMERIC="en_US.UTF-8" width="1080" height="1920" out="125">
 &lt;item type="QGraphicsTextItem" z-index="1">
  &lt;position x="239" y="943">
   &lt;transform>1,0,0,0,1,0,0,0,1&lt;/transform>
  &lt;/position>
  &lt;content line-spacing="0" shadow="0;#64000000;3;3;3" font-underline="0" box-height="144" font-outline-color="0,0,0,255" font="Ubuntu" letter-spacing="0" font-pixel-size="63" font-italic="0" alignment="4" font-weight="50" font-outline="0" box-width="602" font-color="32,74,135,255">Device 
domain name service&lt;/content>
 &lt;/item>
 &lt;item type="QGraphicsTextItem" z-index="0">
  &lt;position x="182" y="725">
   &lt;transform>1,0,0,0,1,0,0,0,1&lt;/transform>
  &lt;/position>
  &lt;content line-spacing="0" shadow="0;#64000000;3;3;3" font-underline="0" box-height="87" font="Ubuntu" letter-spacing="0" font-pixel-size="76" font-italic="0" alignment="4" font-weight="50" box-width="716.453" font-color="32,74,135,255">Sign in to Syncloud.it&lt;/content>
 &lt;/item>
 &lt;startviewport rect="0,0,1080,1920"/>
 &lt;endviewport rect="0,0,1080,1920"/>
 &lt;background color="255,255,255,255"/>
&lt;/kdenlivetitle>
</property>
  <property name="kdenlive:duration">125</property>
  <property name="force_reload">0</property>
  <property name="meta.media.width">1080</property>
  <property name="meta.media.height">1920</property>
  <property name="kdenlive:file_hash">b524d404c38997d6a44755938f072938</property>
  <property name="global_feed">1</property>
 </producer>
 <producer title="Anonymous Submission" id="35" in="0" out="124">
  <property name="length">125</property>
  <property name="eof">pause</property>
  <property name="resource"/>
  <property name="progressive">1</property>
  <property name="aspect_ratio">1</property>
  <property name="seekable">1</property>
  <property name="mlt_service">kdenlivetitle</property>
  <property name="kdenlive:clipname">discover</property>
  <property name="kdenlive:folderid">-1</property>
  <property name="xmldata">&lt;kdenlivetitle duration="125" LC_NUMERIC="en_US.UTF-8" width="1080" height="1920" out="125">
 &lt;item type="QGraphicsTextItem" z-index="0">
  &lt;position x="186" y="829">
   &lt;transform>1,0,0,0,1,0,0,0,1&lt;/transform>
  &lt;/position>
  &lt;content shadow="0;#64000000;3;3;3" font-underline="0" box-height="261" font="Ubuntu" letter-spacing="0" font-pixel-size="76" font-italic="0" alignment="1" font-weight="50" box-width="707.281" font-color="32,74,135,255">Discover your device

by pressing + button&lt;/content>
 &lt;/item>
 &lt;startviewport rect="0,0,1080,1920"/>
 &lt;endviewport rect="0,0,1080,1920"/>
 &lt;background color="255,255,255,255"/>
&lt;/kdenlivetitle>
</property>
  <property name="kdenlive:duration">125</property>
  <property name="force_reload">0</property>
  <property name="meta.media.width">1080</property>
  <property name="meta.media.height">1920</property>
  <property name="kdenlive:file_hash">0759c54775ff97b7bb0ba19fe4051007</property>
  <property name="global_feed">1</property>
 </producer>
 <producer id="38" in="0" out="124">
  <property name="length">125</property>
  <property name="eof">pause</property>
  <property name="resource"/>
  <property name="progressive">1</property>
  <property name="aspect_ratio">1</property>
  <property name="seekable">1</property>
  <property name="mlt_service">kdenlivetitle</property>
  <property name="kdenlive:clipname">certificate</property>
  <property name="kdenlive:folderid">-1</property>
  <property name="xmldata">&lt;kdenlivetitle duration="125" LC_NUMERIC="en_US.UTF-8" width="1080" height="1920" out="125">
 &lt;item type="QGraphicsTextItem" z-index="1">
  &lt;position x="131" y="1086">
   &lt;transform>1,0,0,0,1,0,0,0,1&lt;/transform>
  &lt;/position>
  &lt;content line-spacing="0" shadow="0;#64000000;3;3;3" font-underline="0" box-height="144" font-outline-color="0,0,0,255" font="Ubuntu" letter-spacing="0" font-pixel-size="63" font-italic="0" alignment="4" font-weight="50" font-outline="0" box-width="818.078" font-color="32,74,135,255">Later if all good you can get
real certificate automatically&lt;/content>
 &lt;/item>
 &lt;item type="QGraphicsTextItem" z-index="0">
  &lt;position x="239" y="740">
   &lt;transform>1,0,0,0,1,0,0,0,1&lt;/transform>
  &lt;/position>
  &lt;content shadow="0;#64000000;3;3;3" font-underline="0" box-height="174" font-outline-color="0,0,0,255" font="Ubuntu" letter-spacing="0" font-pixel-size="76" font-italic="0" alignment="1" font-weight="50" font-outline="0" box-width="568.109" font-color="32,74,135,255"> Accept default
security warning&lt;/content>
 &lt;/item>
 &lt;startviewport rect="0,0,1080,1920"/>
 &lt;endviewport rect="0,0,1080,1920"/>
 &lt;background color="255,255,255,255"/>
&lt;/kdenlivetitle>
</property>
  <property name="kdenlive:duration">125</property>
  <property name="force_reload">0</property>
  <property name="meta.media.width">1080</property>
  <property name="meta.media.height">1920</property>
  <property name="kdenlive:file_hash">0502633008c21f64e27c93687b99f85b</property>
 </producer>
 <producer title="Anonymous Submission" id="39" in="0" out="124">
  <property name="length">125</property>
  <property name="eof">pause</property>
  <property name="resource"/>
  <property name="progressive">1</property>
  <property name="aspect_ratio">1</property>
  <property name="seekable">1</property>
  <property name="mlt_service">kdenlivetitle</property>
  <property name="kdenlive:clipname">login</property>
  <property name="kdenlive:folderid">-1</property>
  <property name="xmldata">&lt;kdenlivetitle duration="125" LC_NUMERIC="en_US.UTF-8" width="1080" height="1920" out="125">
 &lt;item type="QGraphicsTextItem" z-index="1">
  &lt;position x="195" y="1086">
   &lt;transform>1,0,0,0,1,0,0,0,1&lt;/transform>
  &lt;/position>
  &lt;content line-spacing="0" shadow="0;#64000000;3;3;3" font-underline="0" box-height="144" font-outline-color="0,0,0,255" font="Ubuntu" letter-spacing="0" font-pixel-size="63" font-italic="0" alignment="4" font-weight="50" font-outline="0" box-width="690.031" font-color="32,74,135,255">Using device credentials
from the activation&lt;/content>
 &lt;/item>
 &lt;item type="QGraphicsTextItem" z-index="0">
  &lt;position x="202" y="815">
   &lt;transform>1,0,0,0,1,0,0,0,1&lt;/transform>
  &lt;/position>
  &lt;content line-spacing="0" shadow="0;#64000000;3;3;3" font-underline="0" box-height="85" font="Ubuntu" letter-spacing="0" font-pixel-size="74" font-italic="0" alignment="4" font-weight="50" box-width="676.766" font-color="32,74,135,255">Login to your device&lt;/content>
 &lt;/item>
 &lt;startviewport rect="0,0,1080,1920"/>
 &lt;endviewport rect="0,0,1080,1920"/>
 &lt;background color="255,255,255,255"/>
&lt;/kdenlivetitle>
</property>
  <property name="kdenlive:duration">125</property>
  <property name="force_reload">0</property>
  <property name="meta.media.width">1080</property>
  <property name="meta.media.height">1920</property>
  <property name="kdenlive:file_hash">f6855868a22a10cd0d083e1650dc5c2a</property>
  <property name="global_feed">1</property>
 </producer>
 <producer title="Anonymous Submission" id="40" in="0" out="1749">
  <property name="length">00:01:10:00</property>
  <property name="eof">pause</property>
  <property name="resource">activate-1.mp4</property>
  <property name="meta.media.nb_streams">1</property>
  <property name="meta.media.0.stream.type">video</property>
  <property name="meta.media.0.stream.frame_rate">28.4087</property>
  <property name="meta.media.0.stream.sample_aspect_ratio">1</property>
  <property name="meta.media.0.codec.width">720</property>
  <property name="meta.media.0.codec.height">1280</property>
  <property name="meta.media.0.codec.rotate">0</property>
  <property name="meta.media.0.codec.frame_rate">90000</property>
  <property name="meta.media.0.codec.pix_fmt">yuv420p</property>
  <property name="meta.media.0.codec.sample_aspect_ratio">0</property>
  <property name="meta.media.0.codec.colorspace">601</property>
  <property name="meta.media.0.codec.color_trc">6</property>
  <property name="meta.media.0.codec.name">h264</property>
  <property name="meta.media.0.codec.long_name">H.264 / AVC / MPEG-4 AVC / MPEG-4 part 10</property>
  <property name="meta.media.0.codec.bit_rate">3232801</property>
  <property name="meta.attr.0.stream.language.markup">eng</property>
  <property name="meta.attr.0.stream.handler_name.markup">VideoHandler</property>
  <property name="meta.attr.major_brand.markup">isom</property>
  <property name="meta.attr.minor_version.markup">512</property>
  <property name="meta.attr.compatible_brands.markup">isomiso2avc1mp41</property>
  <property name="meta.attr.encoder.markup">Lavf58.12.100</property>
  <property name="seekable">1</property>
  <property name="meta.media.sample_aspect_num">1</property>
  <property name="meta.media.sample_aspect_den">1</property>
  <property name="aspect_ratio">1</property>
  <property name="audio_index">-1</property>
  <property name="video_index">0</property>
  <property name="mute_on_pause">1</property>
  <property name="mlt_service">avformat-novalidate</property>
  <property name="kdenlive:folderid">-1</property>
  <property name="meta.media.frame_rate_num">625</property>
  <property name="meta.media.frame_rate_den">22</property>
  <property name="meta.media.colorspace">601</property>
  <property name="meta.media.color_trc">6</property>
  <property name="meta.media.width">720</property>
  <property name="meta.media.height">1280</property>
  <property name="meta.media.variable_frame_rate">1</property>
  <property name="meta.media.top_field_first">0</property>
  <property name="meta.media.progressive">1</property>
  <property name="kdenlive:file_size">28317784</property>
  <property name="kdenlive:file_hash">e8115e602c925574aee9c06e192ca481</property>
  <property name="global_feed">1</property>
 </producer>
 <producer title="Anonymous Submission" id="41" in="0" out="537">
  <property name="length">00:00:21:13</property>
  <property name="eof">pause</property>
  <property name="resource">activate-2.mp4</property>
  <property name="meta.media.nb_streams">1</property>
  <property name="meta.media.0.stream.type">video</property>
  <property name="meta.media.0.stream.frame_rate">38.0922</property>
  <property name="meta.media.0.stream.sample_aspect_ratio">1</property>
  <property name="meta.media.0.codec.width">720</property>
  <property name="meta.media.0.codec.height">1280</property>
  <property name="meta.media.0.codec.rotate">0</property>
  <property name="meta.media.0.codec.frame_rate">90000</property>
  <property name="meta.media.0.codec.pix_fmt">yuv420p</property>
  <property name="meta.media.0.codec.sample_aspect_ratio">0</property>
  <property name="meta.media.0.codec.colorspace">601</property>
  <property name="meta.media.0.codec.color_trc">6</property>
  <property name="meta.media.0.codec.name">h264</property>
  <property name="meta.media.0.codec.long_name">H.264 / AVC / MPEG-4 AVC / MPEG-4 part 10</property>
  <property name="meta.media.0.codec.bit_rate">3758647</property>
  <property name="meta.attr.0.stream.language.markup">eng</property>
  <property name="meta.attr.0.stream.handler_name.markup">VideoHandler</property>
  <property name="meta.attr.major_brand.markup">isom</property>
  <property name="meta.attr.minor_version.markup">512</property>
  <property name="meta.attr.compatible_brands.markup">isomiso2avc1mp41</property>
  <property name="meta.attr.encoder.markup">Lavf58.12.100</property>
  <property name="seekable">1</property>
  <property name="meta.media.sample_aspect_num">1</property>
  <property name="meta.media.sample_aspect_den">1</property>
  <property name="aspect_ratio">1</property>
  <property name="audio_index">-1</property>
  <property name="video_index">0</property>
  <property name="mute_on_pause">1</property>
  <property name="mlt_service">avformat-novalidate</property>
  <property name="kdenlive:folderid">-1</property>
  <property name="meta.media.frame_rate_num">419</property>
  <property name="meta.media.frame_rate_den">11</property>
  <property name="meta.media.colorspace">601</property>
  <property name="meta.media.color_trc">6</property>
  <property name="meta.media.width">720</property>
  <property name="meta.media.height">1280</property>
  <property name="meta.media.variable_frame_rate">1</property>
  <property name="meta.media.top_field_first">0</property>
  <property name="meta.media.progressive">1</property>
  <property name="kdenlive:file_size">10124727</property>
  <property name="kdenlive:file_hash">91ca11bf9f4128960bd8e6c6ba1dce8c</property>
  <property name="global_feed">1</property>
 </producer>
 <producer id="36" in="0" out="124">
  <property name="length">125</property>
  <property name="eof">pause</property>
  <property name="resource"/>
  <property name="progressive">1</property>
  <property name="aspect_ratio">1</property>
  <property name="seekable">1</property>
  <property name="mlt_service">kdenlivetitle</property>
  <property name="kdenlive:clipname">activate</property>
  <property name="kdenlive:folderid">-1</property>
  <property name="xmldata">&lt;kdenlivetitle duration="125" LC_NUMERIC="en_US.UTF-8" width="1080" height="1920" out="125">
 &lt;item type="QGraphicsTextItem" z-index="0">
  &lt;position x="191" y="829">
   &lt;transform>1,0,0,0,1,0,0,0,1&lt;/transform>
  &lt;/position>
  &lt;content line-spacing="0" shadow="0;#64000000;3;3;3" font-underline="0" box-height="261" font-outline-color="0,0,0,255" font="Ubuntu" letter-spacing="0" font-pixel-size="76" font-italic="0" alignment="4" font-weight="50" font-outline="0" box-width="697.547" font-color="32,74,135,255">Activate your device

to give it a name&lt;/content>
 &lt;/item>
 &lt;startviewport rect="0,0,1080,1920"/>
 &lt;endviewport rect="0,0,1080,1920"/>
 &lt;background color="255,255,255,255"/>
&lt;/kdenlivetitle>
</property>
  <property name="kdenlive:duration">125</property>
  <property name="force_reload">0</property>
  <property name="kdenlive:file_hash">89c5df2dc9eb8461a484140245aeb196</property>
  <property name="global_feed">1</property>
  <property name="meta.media.width">1080</property>
  <property name="meta.media.height">1920</property>
 </producer>
 <playlist id="main bin">
  <property name="kdenlive:documentnotes"/>
  <property name="kdenlive:clipgroups"/>
  <property name="kdenlive:customeffects"/>
  <property name="kdenlive:docproperties.version">0.96</property>
  <property name="kdenlive:docproperties.projectfolder">/home/bob/kdenlive</property>
  <property name="kdenlive:docproperties.documentid">1543795233032</property>
  <property name="kdenlive:docproperties.audiotargettrack">-1</property>
  <property name="kdenlive:docproperties.decimalPoint">.</property>
  <property name="kdenlive:docproperties.dirtypreviewchunks"/>
  <property name="kdenlive:docproperties.disablepreview">0</property>
  <property name="kdenlive:docproperties.enableproxy">0</property>
  <property name="kdenlive:docproperties.generateimageproxy">0</property>
  <property name="kdenlive:docproperties.generateproxy">0</property>
  <property name="kdenlive:docproperties.kdenliveversion">18.04.3</property>
  <property name="kdenlive:docproperties.position">1235</property>
  <property name="kdenlive:docproperties.previewchunks"/>
  <property name="kdenlive:docproperties.previewextension"/>
  <property name="kdenlive:docproperties.previewparameters"/>
  <property name="kdenlive:docproperties.profile"/>
  <property name="kdenlive:docproperties.proxyextension">mkv</property>
  <property name="kdenlive:docproperties.proxyimageminsize">2000</property>
  <property name="kdenlive:docproperties.proxyminsize">1000</property>
  <property name="kdenlive:docproperties.proxyparams">-vf yadif,scale=960:-2 -qscale 3 -vcodec mjpeg -acodec pcm_s16le</property>
  <property name="kdenlive:docproperties.verticalzoom">1</property>
  <property name="kdenlive:docproperties.videotargettrack">-1</property>
  <property name="kdenlive:docproperties.zonein">150</property>
  <property name="kdenlive:docproperties.zoneout">252</property>
  <property name="kdenlive:docproperties.zoom">5</property>
  <property name="xml_retain">1</property>
  <entry producer="16" in="0" out="5185"/>
  <entry producer="27" in="0" out="249"/>
  <entry producer="30" in="0" out="751"/>
  <entry producer="3" in="0" out="10568"/>
  <entry producer="31" in="0" out="445"/>
  <entry producer="32" in="0" out="124"/>
  <entry producer="33" in="0" out="642"/>
  <entry producer="34" in="0" out="124"/>
  <entry producer="35" in="0" out="124"/>
  <entry producer="38" in="0" out="124"/>
  <entry producer="39" in="0" out="124"/>
  <entry producer="40" in="0" out="1749"/>
  <entry producer="41" in="0" out="537"/>
  <entry producer="36" in="0" out="124"/>
 </playlist>
 <producer id="black" in="0" out="14999">
  <property name="length">15000</property>
  <property name="eof">pause</property>
  <property name="resource">black</property>
  <property name="aspect_ratio">0</property>
  <property name="mlt_service">colour</property>
  <property name="set.test_audio">0</property>
 </producer>
 <playlist id="black_track">
  <entry producer="black" in="0" out="4249"/>
 </playlist>
 <producer id="16_playlist0" in="0" out="5185">
  <property name="length">5186</property>
  <property name="eof">pause</property>
  <property name="resource">/home/bob/projects/stuff/demo/12_ppk_voskreshenie_myzuka.ru.mp3</property>
  <property name="meta.media.nb_streams">1</property>
  <property name="meta.media.0.stream.type">audio</property>
  <property name="meta.media.0.codec.sample_fmt">fltp</property>
  <property name="meta.media.0.codec.sample_rate">44100</property>
  <property name="meta.media.0.codec.channels">2</property>
  <property name="meta.media.0.codec.name">mp3float</property>
  <property name="meta.media.0.codec.long_name">MP3 (MPEG audio layer 3)</property>
  <property name="meta.media.0.codec.bit_rate">256000</property>
  <property name="meta.attr.0.stream.encoder.markup">LAME3.92 </property>
  <property name="meta.attr.title.markup">Âîñêðåøåíèå</property>
  <property name="meta.attr.album.markup">Ðóññêèé Òðàíñ : Ôîðìèðîâàíèå</property>
  <property name="meta.attr.artist.markup">ÏÏÊ</property>
  <property name="meta.attr.track.markup">12</property>
  <property name="meta.attr.comment.markup">Exact Audio Copy</property>
  <property name="meta.attr.genre.markup">Trance</property>
  <property name="meta.attr.date.markup">2002</property>
  <property name="seekable">1</property>
  <property name="audio_index">0</property>
  <property name="video_index">-1</property>
  <property name="mute_on_pause">1</property>
  <property name="mlt_service">avformat</property>
 </producer>
 <playlist id="playlist0">
  <property name="kdenlive:audio_track">1</property>
  <property name="kdenlive:locked_track">1</property>
  <property name="kdenlive:track_name">Audio 1</property>
  <entry producer="16_playlist0" in="937" out="5185">
   <filter id="fadein" in="937" out="1012">
    <property name="window">75</property>
    <property name="max_gain">20dB</property>
    <property name="mlt_service">volume</property>
    <property name="track">0</property>
    <property name="kdenlive_id">fadein</property>
    <property name="tag">volume</property>
    <property name="kdenlive_ix">1</property>
    <property name="kdenlive_info"/>
    <property name="gain">0</property>
    <property name="end">1</property>
   </filter>
  </entry>
 </playlist>
 <producer title="Anonymous Submission" id="31_playlist1" in="0" out="445">
  <property name="length">00:00:17:21</property>
  <property name="eof">pause</property>
  <property name="resource">install-android-app.mp4</property>
  <property name="audio_index">-1</property>
  <property name="video_index">0</property>
  <property name="mute_on_pause">1</property>
  <property name="mlt_service">avformat-novalidate</property>
  <property name="seekable">1</property>
  <property name="aspect_ratio">1</property>
  <property name="kdenlive:folderid">-1</property>
  <property name="kdenlive:file_size">6612334</property>
  <property name="kdenlive:file_hash">f346ef5b29fb9100c72b10b2d9f0ea36</property>
  <property name="global_feed">1</property>
  <property name="xml">was here</property>
  <property name="meta.media.nb_streams">1</property>
  <property name="meta.media.0.stream.type">video</property>
  <property name="meta.media.0.stream.frame_rate">17.8166</property>
  <property name="meta.media.0.stream.sample_aspect_ratio">1</property>
  <property name="meta.media.0.codec.width">720</property>
  <property name="meta.media.0.codec.height">1280</property>
  <property name="meta.media.0.codec.rotate">0</property>
  <property name="meta.media.0.codec.frame_rate">90000</property>
  <property name="meta.media.0.codec.pix_fmt">yuv420p</property>
  <property name="meta.media.0.codec.sample_aspect_ratio">0</property>
  <property name="meta.media.0.codec.colorspace">601</property>
  <property name="meta.media.0.codec.color_trc">6</property>
  <property name="meta.media.0.codec.name">h264</property>
  <property name="meta.media.0.codec.long_name">H.264 / AVC / MPEG-4 AVC / MPEG-4 part 10</property>
  <property name="meta.media.0.codec.bit_rate">2960153</property>
  <property name="meta.attr.0.stream.creation_time.markup">2018-12-03T00:08:29.000000Z</property>
  <property name="meta.attr.0.stream.language.markup">eng</property>
  <property name="meta.attr.0.stream.handler_name.markup">VideoHandle</property>
  <property name="meta.attr.major_brand.markup">mp42</property>
  <property name="meta.attr.minor_version.markup">0</property>
  <property name="meta.attr.compatible_brands.markup">isommp42</property>
  <property name="meta.attr.creation_time.markup">2018-12-03T00:08:29.000000Z</property>
  <property name="meta.attr.com.android.version.markup">7.0</property>
  <property name="meta.media.sample_aspect_num">1</property>
  <property name="meta.media.sample_aspect_den">1</property>
  <property name="meta.media.frame_rate_num">873</property>
  <property name="meta.media.frame_rate_den">49</property>
  <property name="meta.media.colorspace">601</property>
  <property name="meta.media.color_trc">6</property>
  <property name="meta.media.width">720</property>
  <property name="meta.media.height">1280</property>
  <property name="meta.media.variable_frame_rate">1</property>
  <property name="meta.media.top_field_first">0</property>
  <property name="meta.media.progressive">1</property>
 </producer>
 <producer title="Anonymous Submission" id="33_playlist2" in="0" out="642">
  <property name="length">00:00:25:18</property>
  <property name="eof">pause</property>
  <property name="resource">discovery.mp4</property>
  <property name="audio_index">-1</property>
  <property name="video_index">0</property>
  <property name="mute_on_pause">1</property>
  <property name="mlt_service">avformat-novalidate</property>
  <property name="seekable">1</property>
  <property name="aspect_ratio">1</property>
  <property name="kdenlive:folderid">-1</property>
  <property name="kdenlive:file_size">3734527</property>
  <property name="kdenlive:file_hash">c0b5178e4550957ed2e2d0b467279149</property>
  <property name="global_feed">1</property>
  <property name="xml">was here</property>
  <property name="meta.media.nb_streams">1</property>
  <property name="meta.media.0.stream.type">video</property>
  <property name="meta.media.0.stream.frame_rate">34.0528</property>
  <property name="meta.media.0.stream.sample_aspect_ratio">1</property>
  <property name="meta.media.0.codec.width">720</property>
  <property name="meta.media.0.codec.height">1280</property>
  <property name="meta.media.0.codec.rotate">0</property>
  <property name="meta.media.0.codec.frame_rate">90000</property>
  <property name="meta.media.0.codec.pix_fmt">yuv420p</property>
  <property name="meta.media.0.codec.sample_aspect_ratio">0</property>
  <property name="meta.media.0.codec.colorspace">601</property>
  <property name="meta.media.0.codec.color_trc">6</property>
  <property name="meta.media.0.codec.name">h264</property>
  <property name="meta.media.0.codec.long_name">H.264 / AVC / MPEG-4 AVC / MPEG-4 part 10</property>
  <property name="meta.media.0.codec.bit_rate">1156805</property>
  <property name="meta.attr.0.stream.creation_time.markup">2018-12-03T00:19:07.000000Z</property>
  <property name="meta.attr.0.stream.language.markup">eng</property>
  <property name="meta.attr.0.stream.handler_name.markup">VideoHandle</property>
  <property name="meta.attr.major_brand.markup">mp42</property>
  <property name="meta.attr.minor_version.markup">0</property>
  <property name="meta.attr.compatible_brands.markup">isommp42</property>
  <property name="meta.attr.creation_time.markup">2018-12-03T00:19:07.000000Z</property>
  <property name="meta.attr.com.android.version.markup">7.0</property>
  <property name="meta.media.sample_aspect_num">1</property>
  <property name="meta.media.sample_aspect_den">1</property>
  <property name="meta.media.frame_rate_num">647</property>
  <property name="meta.media.frame_rate_den">19</property>
  <property name="meta.media.colorspace">601</property>
  <property name="meta.media.color_trc">6</property>
  <property name="meta.media.width">720</property>
  <property name="meta.media.height">1280</property>
  <property name="meta.media.variable_frame_rate">1</property>
  <property name="meta.media.top_field_first">0</property>
  <property name="meta.media.progressive">1</property>
 </producer>
 <producer title="Anonymous Submission" id="40_playlist3" in="0" out="1749">
  <property name="length">00:01:10:00</property>
  <property name="eof">pause</property>
  <property name="resource">activate-1.mp4</property>
  <property name="audio_index">-1</property>
  <property name="video_index">0</property>
  <property name="mute_on_pause">1</property>
  <property name="mlt_service">avformat-novalidate</property>
  <property name="seekable">1</property>
  <property name="aspect_ratio">1</property>
  <property name="kdenlive:folderid">-1</property>
  <property name="kdenlive:file_size">28317784</property>
  <property name="kdenlive:file_hash">e8115e602c925574aee9c06e192ca481</property>
  <property name="global_feed">1</property>
  <property name="xml">was here</property>
  <property name="meta.media.nb_streams">1</property>
  <property name="meta.media.0.stream.type">video</property>
  <property name="meta.media.0.stream.frame_rate">28.4087</property>
  <property name="meta.media.0.stream.sample_aspect_ratio">1</property>
  <property name="meta.media.0.codec.width">720</property>
  <property name="meta.media.0.codec.height">1280</property>
  <property name="meta.media.0.codec.rotate">0</property>
  <property name="meta.media.0.codec.frame_rate">90000</property>
  <property name="meta.media.0.codec.pix_fmt">yuv420p</property>
  <property name="meta.media.0.codec.sample_aspect_ratio">0</property>
  <property name="meta.media.0.codec.colorspace">601</property>
  <property name="meta.media.0.codec.color_trc">6</property>
  <property name="meta.media.0.codec.name">h264</property>
  <property name="meta.media.0.codec.long_name">H.264 / AVC / MPEG-4 AVC / MPEG-4 part 10</property>
  <property name="meta.media.0.codec.bit_rate">3232801</property>
  <property name="meta.attr.0.stream.language.markup">eng</property>
  <property name="meta.attr.0.stream.handler_name.markup">VideoHandler</property>
  <property name="meta.attr.major_brand.markup">isom</property>
  <property name="meta.attr.minor_version.markup">512</property>
  <property name="meta.attr.compatible_brands.markup">isomiso2avc1mp41</property>
  <property name="meta.attr.encoder.markup">Lavf58.12.100</property>
  <property name="meta.media.sample_aspect_num">1</property>
  <property name="meta.media.sample_aspect_den">1</property>
  <property name="meta.media.frame_rate_num">625</property>
  <property name="meta.media.frame_rate_den">22</property>
  <property name="meta.media.colorspace">601</property>
  <property name="meta.media.color_trc">6</property>
  <property name="meta.media.width">720</property>
  <property name="meta.media.height">1280</property>
  <property name="meta.media.variable_frame_rate">1</property>
  <property name="meta.media.top_field_first">0</property>
  <property name="meta.media.progressive">1</property>
 </producer>
 <producer title="Anonymous Submission" id="41_playlist3" in="0" out="537">
  <property name="length">00:00:21:13</property>
  <property name="eof">pause</property>
  <property name="resource">activate-2.mp4</property>
  <property name="audio_index">-1</property>
  <property name="video_index">0</property>
  <property name="mute_on_pause">1</property>
  <property name="mlt_service">avformat-novalidate</property>
  <property name="seekable">1</property>
  <property name="aspect_ratio">1</property>
  <property name="kdenlive:folderid">-1</property>
  <property name="kdenlive:file_size">10124727</property>
  <property name="kdenlive:file_hash">91ca11bf9f4128960bd8e6c6ba1dce8c</property>
  <property name="global_feed">1</property>
  <property name="xml">was here</property>
  <property name="meta.media.nb_streams">1</property>
  <property name="meta.media.0.stream.type">video</property>
  <property name="meta.media.0.stream.frame_rate">38.0922</property>
  <property name="meta.media.0.stream.sample_aspect_ratio">1</property>
  <property name="meta.media.0.codec.width">720</property>
  <property name="meta.media.0.codec.height">1280</property>
  <property name="meta.media.0.codec.rotate">0</property>
  <property name="meta.media.0.codec.frame_rate">90000</property>
  <property name="meta.media.0.codec.pix_fmt">yuv420p</property>
  <property name="meta.media.0.codec.sample_aspect_ratio">0</property>
  <property name="meta.media.0.codec.colorspace">601</property>
  <property name="meta.media.0.codec.color_trc">6</property>
  <property name="meta.media.0.codec.name">h264</property>
  <property name="meta.media.0.codec.long_name">H.264 / AVC / MPEG-4 AVC / MPEG-4 part 10</property>
  <property name="meta.media.0.codec.bit_rate">3758647</property>
  <property name="meta.attr.0.stream.language.markup">eng</property>
  <property name="meta.attr.0.stream.handler_name.markup">VideoHandler</property>
  <property name="meta.attr.major_brand.markup">isom</property>
  <property name="meta.attr.minor_version.markup">512</property>
  <property name="meta.attr.compatible_brands.markup">isomiso2avc1mp41</property>
  <property name="meta.attr.encoder.markup">Lavf58.12.100</property>
  <property name="meta.media.sample_aspect_num">1</property>
  <property name="meta.media.sample_aspect_den">1</property>
  <property name="meta.media.frame_rate_num">419</property>
  <property name="meta.media.frame_rate_den">11</property>
  <property name="meta.media.colorspace">601</property>
  <property name="meta.media.color_trc">6</property>
  <property name="meta.media.width">720</property>
  <property name="meta.media.height">1280</property>
  <property name="meta.media.variable_frame_rate">1</property>
  <property name="meta.media.top_field_first">0</property>
  <property name="meta.media.progressive">1</property>
 </producer>
 <playlist id="playlist1">
  <property name="kdenlive:track_name">Video 1</property>
  <entry producer="27" in="0" out="74"/>
  <blank length="56"/>
  <entry producer="31_playlist1" in="0" out="331"/>
  <entry producer="31_playlist1" in="332" out="407"/>
  <entry producer="31_playlist1" in="332" out="407"/>
  <entry producer="33_playlist2" in="29" out="402"/>
  <blank length="75"/>
  <entry producer="33_playlist2" in="403" out="567"/>
  <blank length="60"/>
  <entry producer="40_playlist3" in="0" out="168"/>
  <entry producer="40_playlist3" in="838" out="1083"/>
  <entry producer="40_playlist3" in="1219" out="1682"/>
  <entry producer="41_playlist3" in="0" out="293"/>
  <blank length="73"/>
  <entry producer="41_playlist3" in="294" out="487"/>
  <blank length="859"/>
  <entry producer="30" in="65" out="150"/>
  <entry producer="30" in="238" out="351"/>
  <entry producer="30" in="474" out="751"/>
  <entry producer="27" in="0" out="182"/>
 </playlist>
 <playlist id="playlist2">
  <property name="kdenlive:track_name">labels</property>
  <property name="kdenlive:locked_track">0</property>
  <blank length="46"/>
  <entry producer="32" in="0" out="124"/>
  <blank length="311"/>
  <entry producer="34" in="0" out="103"/>
  <blank length="387"/>
  <entry producer="35" in="0" out="124"/>
  <blank length="93"/>
  <entry producer="36" in="0" out="124"/>
  <blank length="1120"/>
  <entry producer="38" in="0" out="124"/>
  <blank length="139"/>
  <entry producer="39" in="0" out="124"/>
 </playlist>
 <playlist id="playlist3">
  <property name="kdenlive:track_name">Video 2</property>
 </playlist>
 <playlist id="playlist4">
  <property name="kdenlive:track_name">Video 3</property>
 </playlist>
 <tractor title="Anonymous Submission" id="maintractor" global_feed="1" in="0" out="4249">
  <property name="meta.volume">1</property>
  <track producer="black_track"/>
  <track hide="both" producer="playlist0"/>
  <track producer="playlist1"/>
  <track producer="playlist2"/>
  <track producer="playlist3"/>
  <track producer="playlist4"/>
  <transition id="transition3" in="46" out="170">
   <property name="a_track">2</property>
   <property name="b_track">3</property>
   <property name="rect">0=0 0 1080 1920 0;25=0 0 1080 1920 1;97=0 0 1080 1920 1;124=0 0 1080 1920 0</property>
   <property name="compositing">0</property>
   <property name="distort">0</property>
   <property name="rotate_center">1</property>
   <property name="mlt_service">qtblend</property>
   <property name="automatic">1</property>
   <property name="kdenlive_id">qtblend</property>
   <property name="force_track">0</property>
   <property name="rotation">0|=0;25=0;97=0;124=0</property>
  </transition>
  <transition id="transition4" in="482" out="585">
   <property name="a_track">2</property>
   <property name="b_track">3</property>
   <property name="rect">0=0 0 1080 1920 0;19=0 0 1080 1920 1;87=0 0 1080 1920 1;103=0 0 1080 1920 0</property>
   <property name="compositing">0</property>
   <property name="distort">0</property>
   <property name="rotate_center">1</property>
   <property name="mlt_service">qtblend</property>
   <property name="automatic">1</property>
   <property name="kdenlive_id">qtblend</property>
   <property name="force_track">0</property>
   <property name="rotation">0=0;19=0;87=0;104=</property>
  </transition>
  <transition id="transition5" in="973" out="1097">
   <property name="a_track">2</property>
   <property name="b_track">3</property>
   <property name="rect">0=0 0 1080 1920 0;21=0 0 1080 1920 1;103=0 0 1080 1920 1;124=0 0 1080 1920 0</property>
   <property name="compositing">0</property>
   <property name="distort">0</property>
   <property name="rotate_center">1</property>
   <property name="mlt_service">qtblend</property>
   <property name="automatic">1</property>
   <property name="kdenlive_id">qtblend</property>
   <property name="force_track">0</property>
   <property name="rotation">0|=0;21=0;103=0;125=</property>
  </transition>
  <transition id="transition6" in="1191" out="1315">
   <property name="a_track">2</property>
   <property name="b_track">3</property>
   <property name="rect">0=0 0 1080 1920 0;19=0 0 1080 1920 1;101=0 0 1080 1920 1;124=0 0 1080 1920 0</property>
   <property name="compositing">0</property>
   <property name="distort">0</property>
   <property name="rotate_center">1</property>
   <property name="mlt_service">qtblend</property>
   <property name="automatic">1</property>
   <property name="kdenlive_id">qtblend</property>
   <property name="force_track">0</property>
   <property name="rotation">0|=0;19=0;101=0;124=0</property>
  </transition>
  <transition id="transition0">
   <property name="a_track">0</property>
   <property name="b_track">1</property>
   <property name="mlt_service">mix</property>
   <property name="always_active">1</property>
   <property name="sum">1</property>
   <property name="internal_added">237</property>
  </transition>
  <transition id="transition1">
   <property name="a_track">0</property>
   <property name="b_track">2</property>
   <property name="mlt_service">mix</property>
   <property name="always_active">1</property>
   <property name="sum">1</property>
   <property name="internal_added">237</property>
  </transition>
  <transition id="transition2">
   <property name="a_track">0</property>
   <property name="b_track">3</property>
   <property name="mlt_service">mix</property>
   <property name="always_active">1</property>
   <property name="sum">1</property>
   <property name="internal_added">237</property>
  </transition>
  <transition id="transition7">
   <property name="a_track">0</property>
   <property name="b_track">4</property>
   <property name="mlt_service">mix</property>
   <property name="always_active">1</property>
   <property name="sum">1</property>
   <property name="internal_added">237</property>
  </transition>
  <transition id="transition8">
   <property name="a_track">0</property>
   <property name="b_track">5</property>
   <property name="mlt_service">mix</property>
   <property name="always_active">1</property>
   <property name="sum">1</property>
   <property name="internal_added">237</property>
  </transition>
  <transition id="transition9" in="2436" out="2560">
   <property name="a_track">2</property>
   <property name="b_track">3</property>
   <property name="rect">0=0 0 1080 1920 0;22=0 0 1080 1920 1;102=0 0 1080 1920 1;124=0 0 1080 1920 0</property>
   <property name="compositing">0</property>
   <property name="distort">0</property>
   <property name="rotate_center">1</property>
   <property name="mlt_service">qtblend</property>
   <property name="automatic">1</property>
   <property name="kdenlive_id">qtblend</property>
   <property name="force_track">0</property>
   <property name="rotation">0=0;22=0;102=0;124=0</property>
  </transition>
  <transition id="transition10" in="2700" out="2824">
   <property name="a_track">2</property>
   <property name="b_track">3</property>
   <property name="rect">0=0 0 1080 1920 0;16=0 0 1080 1920 1;102=0 0 1080 1920 1;124=0 0 1080 1920 0</property>
   <property name="compositing">0</property>
   <property name="distort">0</property>
   <property name="rotate_center">1</property>
   <property name="mlt_service">qtblend</property>
   <property name="automatic">1</property>
   <property name="kdenlive_id">qtblend</property>
   <property name="force_track">0</property>
   <property name="rotation">0=0;16=0;102=0;124=0</property>
  </transition>
  <transition id="transition11" in="4001" out="4065">
   <property name="a_track">0</property>
   <property name="b_track">2</property>
   <property name="factory">loader</property>
   <property name="mlt_service">luma</property>
   <property name="automatic">1</property>
   <property name="kdenlive_id">dissolve</property>
   <property name="force_track">0</property>
   <property name="reverse">1</property>
  </transition>
  <transition id="transition12" in="4066" out="4130">
   <property name="a_track">0</property>
   <property name="b_track">2</property>
   <property name="factory">loader</property>
   <property name="mlt_service">luma</property>
   <property name="automatic">1</property>
   <property name="kdenlive_id">dissolve</property>
   <property name="force_track">0</property>
   <property name="reverse">0</property>
  </transition>
 </tractor>
</mlt>
